<svg aria-hidden="true" style="position: absolute; width: 0; height: 0; overflow: hidden;" version="1.1" xmlns="http://www.w3.org/2000/svg" xmlns:xlink="http://www.w3.org/1999/xlink">
<defs>
<symbol id="icon-logo-schews" viewBox="0 0 88 32">
<path d="M12.144 0c-5.526 0-10.398 2.796-11.583 6.648-1.271 4.132 2.562 6.807 5.361 8.759 2.673 1.866 4.38 3.209 3.782 4.816-0.421 1.133-1.754 1.811-3.564 1.811-1.325 0-2.332-0.36-2.832-1.014-0.339-0.441-0.414-0.981-0.217-1.558 0.171-0.499 0.588-0.943 1.178-1.251 0.186-0.097 0.264-0.312 0.18-0.496l-0.459-1.012c-0.067-0.147-0.218-0.236-0.379-0.236-0.044 0-0.088 0.007-0.132 0.021-1.229 0.394-2.714 1.458-3.070 2.861-0.271 1.066-0.032 2.121 0.673 2.97 0.978 1.176 2.725 1.824 4.919 1.824 3.159 0 5.586-1.37 6.491-3.665 1.342-3.401-1.785-5.685-4.545-7.699-2.551-1.863-4.961-3.623-4.328-6.027 0.743-2.82 4.045-4.642 8.411-4.642 1.566 0 2.761 0.44 3.366 1.239 0.462 0.612 0.548 1.417 0.243 2.268-0.663 1.848-2.892 3.37-5.963 4.072-0.219 0.050-0.354 0.258-0.305 0.465l0.276 1.154c0.043 0.181 0.213 0.304 0.401 0.304 0.027 0 0.054-0.002 0.081-0.008 4.070-0.775 7.315-3.038 8.267-5.762 0.478-1.37 0.308-2.694-0.481-3.728-0.735-0.965-2.332-2.114-5.77-2.114z"></path>
<path d="M85.178 10.829h-0.001c-0.145 0-0.388 0.001-0.646 0.001-0.517 0-1.099-0.001-1.099-0.001-0.168 0-0.32 0.097-0.382 0.246-0.615 1.469-1.293 2.687-2.070 3.721-0.102 0.135-0.159 0.264-0.027 0.506 0.205 0.371 0.486 0.567 0.925 0.683 0.069 0.018 0.137 0.032 0.202 0.032 0.11 0 0.212-0.037 0.297-0.148 0.183 1.068 1.141 2.655 1.148 3.888 0.005 1.1-0.769 1.731-2.11 1.731-1.56 0-2.233-0.95-2.525-1.746-0.074-0.202-0.221-0.262-0.359-0.262-0.122 0-0.237 0.047-0.286 0.084l-0.825 0.622c-0.137 0.103-0.192 0.28-0.133 0.435 0.906 2.373 2.454 3.478 4.875 3.478 2.703 0 4.449-1.452 4.449-3.698 0-1.060-0.332-2.233-1.016-3.587-1.642-3.253-0.565-4.758-0.12-5.328 0.336-0.431-0.093-0.656-0.3-0.656z"></path>
<path d="M60.073 6.025c-2.128 0-2.961 2.018-2.643 2.883 0.147 0.398 0.456 0.565 0.767 0.565 0.366 0 0.736-0.23 0.847-0.587 0.151-0.483 0.598-0.747 1.043-0.747 0.422 0 0.843 0.239 1.007 0.755 0.134 0.423 0.481 0.632 0.825 0.632 0.349 0 0.694-0.215 0.813-0.639 0.234-0.835-0.451-2.862-2.658-2.862z"></path>
<path d="M69.088 6.17c-2.128 0-2.962 2.018-2.643 2.883 0.146 0.398 0.456 0.565 0.767 0.565 0.366 0 0.736-0.23 0.847-0.587 0.151-0.483 0.598-0.748 1.043-0.748 0.422 0 0.843 0.239 1.007 0.755 0.134 0.423 0.481 0.632 0.825 0.632 0.349 0 0.694-0.215 0.813-0.639 0.234-0.836-0.452-2.862-2.659-2.862z"></path>
<path d="M36.017 0.345h-2.149c-0.176 0-0.332 0.106-0.389 0.263l-6.136 16.896c-1.597 2.148-4.4 3.98-6.799 3.98-0.822 0-1.597-0.215-2.26-0.707-0.743-0.551-0.786-2.122-0.312-3.451 0.712-1.971 2.599-3.817 3.925-3.817 0.395 0 0.74 0.163 0.99 0.536 0.307 0.459 0.15 1.512-0.93 2.775-0.124 0.119-0.321 0.535 0.319 0.636h0.892c0.081 0 0.16-0.023 0.227-0.064 0.94-0.59 1.644-1.393 1.93-2.205 0.486-1.258 0.084-2.988-1.361-3.538-0.51-0.194-1.045-0.284-1.59-0.284-4.637-0-9.993 6.508-6.922 10.929 0.855 1.231 2.343 1.76 3.994 1.76 2.221 0 4.738-0.957 6.408-2.449 0 0-0.454 1.237-0.599 1.651-0.112 0.321 0.169 0.517 0.389 0.517h2.15c0.175 0 0.332-0.105 0.389-0.263 0.408-1.126 1.636-4.506 1.636-4.506 1.911-3.212 3.809-5.050 4.892-5.050 0.057 0 0.112 0.005 0.164 0.015 0.166 0.032 0.344 0.225 0.062 0.96-0.507 1.325-1.534 3.972-2.046 5.296-0.654 1.693-0.368 2.621-0.015 3.101 0.538 0.549 1.195 0.773 1.901 0.773 1.924 0 4.212-1.665 5.46-2.93 0.906 2.088 2.631 2.934 4.582 2.934 2.696 0 5.823-1.614 7.819-3.795 0.251 2.112 1.977 3.919 4.452 3.919 0.010 0 0.018-0 0.027-0 2.116-0.011 4.832-0.787 7.129-5.3 0.566 1.313 2.142 5.288 6.146 5.288 0.211 0 0.428-0.011 0.653-0.034 4.505-0.461 4.618-5.322 4.362-6.562 2.248-0.785 4.428-2.996 4.929-3.78 0.565-0.885 0.703-1.851 0.363-2.758-0.453-1.206-1.814-2.11-3.223-2.11-0.073 0-0.147 0.002-0.22 0.007-0.972 0.066-2.237 0.944-3.125 1.365-0.711 0.339-1.433 0.521-2.75 0.689-0.286 0.037-0.396 0.361-0.314 0.536 0.702 1.503 1.487 2.993 1.857 6.335 0.296 2.669-1.061 3.832-2.552 3.832-1.064 0-2.197-0.592-2.847-1.652-0.608-0.99-1.269-2.13-1.714-3.544 0.075-0.048 1.485-1.387 1.976-1.853 1.399-1.326-0.22-3.367-1.955-3.367-0.647 0-1.938-0.042-2.584-0.042-1.86 0-3.358 2.087-2.079 3.299 0.467 0.443 1.765 1.807 1.798 1.834-0.127 0.306-0.276 0.619-0.448 0.936-0.433 0.826-0.95 1.579-1.537 2.237-0.683 0.761-1.324 1.288-1.964 1.612-0.49 0.257-1.002 0.386-1.526 0.386-0.18 0-0.361-0.015-0.543-0.046-0.677-0.122-1.053-0.392-1.258-0.904-0.204-0.502-0.245-1.249-0.121-2.213 0.223-1.482 0.761-3.146 1.696-5.236l0.389-0.87c0.087-0.193-0.004-0.417-0.206-0.506l-1.761-0.775c-0.057-0.025-0.117-0.036-0.177-0.036-0.155 0-0.304 0.080-0.368 0.221-0.685 1.518-1.798 4.553-2.368 6.21-0.771 2.243-4.238 4.087-6.833 4.087-1.298 0-2.378-0.461-2.793-1.565 3.817-0.707 6.895-2.608 7.551-4.764 0.588-1.934-0.322-3.060-1.163-3.445-0.625-0.286-1.271-0.414-1.916-0.414-3.174-0-6.354 3.103-7.235 5.865-0.174 0.544-0.332 1.085-0.393 1.635-1.296 1.66-3.164 2.67-3.998 2.67-0.164 0-0.288-0.039-0.36-0.12-0.083-0.093-0.057-0.321 0.047-0.591 0.579-1.506 2.316-6.025 2.316-6.025 0.809-2.391-0.23-3.366-1.753-3.367-1.448-0-3.333 0.881-4.483 2.264l4.646-12.796c0.043-0.119 0.030-0.498-0.389-0.518zM74.267 13.092c-0.057-0.152-0.14-0.364-0.202-0.517 2.015-0.879 1.894-1.131 2.751-1.604 0.221-0.122 0.467-0.178 0.71-0.178 0.952-0 1.864 0.858 1.104 1.961-0.289 0.42-1.817 1.972-3.616 2.7-0.057-0.23-0.118-0.459-0.184-0.687 1.423-0.722 2.477-1.539 3.030-2.096 0.364-0.367 0.054-1.081-0.494-1.081-0.148-0-0.312 0.052-0.486 0.176-0.524 0.374-1.202 0.836-2.611 1.327zM43.136 18.038c0.054-0.23 0.124-0.468 0.21-0.711 0.507-1.72 2.536-3.857 3.811-3.857 0.413-0 0.748 0.225 0.925 0.762 0.101 1.191-1.377 3.094-4.947 3.806z"></path>
<path d="M48.569 28.694h-1.259c0.034-0.341 0.297-0.59 0.65-0.59 0.367 0 0.588 0.216 0.609 0.59zM46.162 29.028c0 1.050 0.733 1.679 1.903 1.679 0.484 0 0.851-0.079 1.107-0.217 0.249-0.138 0.387-0.328 0.387-0.544 0-0.479-0.623-0.499-0.63-0.485-0.125 0.23-0.408 0.393-0.816 0.393-0.394 0-0.692-0.177-0.789-0.485-0.014-0.026-0.021-0.059-0.028-0.092h2.186c0.208 0 0.263-0.112 0.27-0.302v-0.059c0-0.938-0.727-1.62-1.771-1.62-1.059 0-1.82 0.735-1.82 1.732zM44.522 27.297c-0.526 0-0.851 0.236-1.066 0.59v-0.931c0-0.768-0.436-0.958-0.816-0.958-0.27 0-0.512 0.098-0.512 0.144v3.896c0 0.466 0.249 0.61 0.602 0.61h0.138c0.339 0 0.588-0.151 0.588-0.61v-1.194c0-0.335 0.187-0.525 0.519-0.525 0.27 0 0.429 0.184 0.429 0.499v1.22c0 0.466 0.249 0.61 0.609 0.61h0.138c0.339 0 0.581-0.158 0.581-0.61v-1.41c0-0.702-0.325-1.332-1.211-1.332zM37.611 28.497c0 1.299 0.941 2.211 2.332 2.211 0.643 0 1.086-0.164 1.377-0.381 0.277-0.216 0.401-0.479 0.401-0.689 0-0.557-0.789-0.682-0.809-0.643-0.152 0.321-0.457 0.505-0.886 0.505-0.56 0-0.989-0.394-0.989-1.010s0.422-1.004 0.989-1.004c0.394 0 0.706 0.171 0.872 0.479 0.021 0.039 0.802-0.092 0.802-0.643 0-0.21-0.118-0.466-0.394-0.676-0.284-0.21-0.726-0.367-1.356-0.367-1.391 0-2.338 0.925-2.338 2.217zM33.294 30.472c0.249 0.138 0.643 0.216 1.19 0.216 1.052 0 1.605-0.4 1.605-1.082 0-0.774-0.816-0.918-1.252-1.010-0.353-0.079-0.588-0.105-0.588-0.256 0-0.138 0.145-0.216 0.401-0.216 0.353 0 0.754 0.184 1.003 0.413 0.021 0.020 0.353-0.197 0.353-0.492 0-0.111-0.028-0.21-0.090-0.302-0.173-0.282-0.63-0.44-1.363-0.44-0.962 0-1.515 0.42-1.515 1.076 0 0.794 0.782 0.932 1.211 1.017 0.332 0.072 0.546 0.112 0.546 0.269 0 0.131-0.145 0.203-0.415 0.203-0.457 0-0.872-0.177-1.107-0.38-0.028-0.026-0.318 0.177-0.318 0.459 0 0.223 0.104 0.4 0.339 0.525zM30.955 31.436c-0.471 0-0.699-0.118-0.699-0.308 0-0.21 0.263-0.348 0.678-0.38 0.104 0.026 0.187 0.039 0.27 0.066 0.263 0.066 0.429 0.138 0.429 0.295 0 0.197-0.215 0.328-0.678 0.328zM30.962 29.009c-0.297 0-0.512-0.19-0.512-0.492 0-0.295 0.215-0.485 0.505-0.485 0.297 0 0.512 0.19 0.512 0.485 0 0.302-0.215 0.492-0.505 0.492zM30.928 32c1.218 0 1.909-0.426 1.909-1.063 0-0.564-0.498-0.827-0.975-0.951-0.346-0.092-0.595-0.118-0.699-0.21-0.083-0.033-0.138-0.066-0.152-0.105 0.048 0 0.097-0.006 0.145-0.006 0.92-0.039 1.488-0.472 1.488-1.141 0-0.269-0.118-0.512-0.318-0.715l0.595-0.525c0.034-0.020-0.166-0.525-0.623-0.525-0.256 0-0.443 0.111-0.595 0.407l-0.118 0.236c-0.194-0.066-0.408-0.105-0.63-0.105-0.976 0-1.667 0.518-1.667 1.233 0 0.531 0.36 0.918 0.989 1.069-0.173 0.079-0.284 0.23-0.284 0.393 0 0.118 0.035 0.223 0.111 0.295-0.616 0.072-1.045 0.374-1.045 0.833 0 0.584 0.56 0.879 1.868 0.879zM27.801 29.002c0 0.426-0.311 0.741-0.733 0.741-0.436 0-0.74-0.302-0.74-0.748 0-0.439 0.304-0.741 0.74-0.741 0.429 0 0.733 0.308 0.733 0.748zM25.199 28.996c0 1.043 0.726 1.712 1.854 1.712 1.135 0 1.875-0.676 1.875-1.706 0-1.023-0.733-1.706-1.854-1.706-1.128 0-1.875 0.682-1.875 1.699zM22.425 29.501h-0.464v-2.014h0.477c0.637 0 1.045 0.354 1.045 0.991 0 0.649-0.422 1.023-1.058 1.023zM20.585 29.894c0 0.4 0.339 0.722 0.775 0.722h1.1c1.467 0 2.394-0.833 2.394-2.138 0-1.299-0.899-2.106-2.366-2.106h-1.183c-0.415 0-0.72 0.256-0.72 0.735v2.788zM17.465 29.16c0 0.354-0.263 0.571-0.63 0.571-0.394 0-0.664-0.295-0.664-0.728 0-0.453 0.27-0.728 0.685-0.728 0.291 0 0.498 0.144 0.609 0.361v0.525zM16.469 30.708c0.464 0 0.83-0.236 1.010-0.597 0.007 0.066 0.021 0.131 0.035 0.19 0.076 0.262 0.284 0.348 0.56 0.348h0.131c0.346 0 0.588-0.158 0.588-0.61v-3.083c0-0.768-0.436-0.958-0.816-0.958-0.27 0-0.512 0.098-0.512 0.144v1.601c-0.201-0.269-0.56-0.446-0.989-0.446-0.948 0-1.564 0.656-1.564 1.699 0 1.010 0.623 1.712 1.557 1.712zM13.473 29.002c0 0.426-0.311 0.741-0.733 0.741-0.436 0-0.74-0.302-0.74-0.748 0-0.439 0.304-0.741 0.74-0.741 0.429 0 0.733 0.308 0.733 0.748zM10.872 28.996c0 1.043 0.726 1.712 1.854 1.712 1.135 0 1.875-0.676 1.875-1.706 0-1.023-0.733-1.706-1.854-1.706-1.128 0-1.875 0.682-1.875 1.699zM9.426 29.002c0 0.426-0.311 0.741-0.733 0.741-0.436 0-0.74-0.302-0.74-0.748 0-0.439 0.304-0.741 0.74-0.741 0.429 0 0.733 0.308 0.733 0.748zM6.825 28.996c0 1.043 0.726 1.712 1.854 1.712 1.135 0 1.875-0.676 1.875-1.706 0-1.023-0.733-1.706-1.854-1.706-1.128 0-1.875 0.682-1.875 1.699zM5.912 28.182h-1.211c-0.436 0-0.65 0.079-0.65 0.453v0.059c0 0.361 0.215 0.453 0.65 0.453h0.415c-0.007 0.052-0.021 0.105-0.035 0.144-0.104 0.249-0.401 0.413-0.796 0.413-0.616 0-1.059-0.446-1.059-1.148 0-0.695 0.491-1.155 1.121-1.155 0.387 0 0.747 0.164 0.982 0.459 0.042 0.039 0.699-0.118 0.699-0.604 0-0.275-0.159-0.525-0.463-0.695-0.304-0.177-0.74-0.282-1.301-0.282-1.467 0-2.435 0.925-2.435 2.217 0 1.266 0.858 2.191 2.096 2.191 0.65 0 1.093-0.243 1.315-0.61l0.042 0.112c0.118 0.361 0.387 0.459 0.636 0.459 0.256 0 0.47-0.092 0.47-0.131v-1.778c0-0.38-0.076-0.558-0.477-0.558z"></path>
<path d="M51.502 30.655c0.401 0 0.616-0.066 0.726-0.413l0.422-1.259 0.429 1.259c0.118 0.354 0.311 0.413 0.733 0.413 0.228 0 0.567-0.046 0.65-0.335l0.899-2.637c0.028-0.072-0.408-0.367-0.796-0.367-0.228 0-0.505 0.105-0.567 0.479l-0.291 1.482-0.381-1.299c-0.069-0.262-0.325-0.394-0.63-0.394-0.311 0-0.574 0.131-0.65 0.394l-0.429 1.364-0.291-1.548c-0.069-0.381-0.353-0.479-0.602-0.479-0.36 0-0.837 0.295-0.803 0.367l0.92 2.637c0.104 0.282 0.429 0.335 0.657 0.335z"></path>
<path d="M78.173 30.472c0.249 0.138 0.643 0.216 1.19 0.216 1.052 0 1.605-0.4 1.605-1.082 0-0.774-0.816-0.918-1.252-1.010-0.353-0.079-0.588-0.105-0.588-0.256 0-0.138 0.145-0.216 0.401-0.216 0.353 0 0.754 0.184 1.003 0.413 0.021 0.020 0.353-0.197 0.353-0.492 0-0.111-0.028-0.21-0.090-0.302-0.173-0.282-0.63-0.439-1.363-0.439-0.962 0-1.515 0.42-1.515 1.076 0 0.794 0.782 0.931 1.211 1.017 0.332 0.072 0.547 0.111 0.547 0.269 0 0.131-0.145 0.203-0.415 0.203-0.457 0-0.872-0.177-1.107-0.38-0.028-0.026-0.318 0.177-0.318 0.459 0 0.223 0.104 0.4 0.339 0.525zM73.793 30.655c0.401 0 0.616-0.066 0.726-0.413l0.422-1.259 0.429 1.259c0.118 0.354 0.311 0.413 0.733 0.413 0.228 0 0.567-0.046 0.65-0.335l0.899-2.637c0.028-0.072-0.408-0.367-0.796-0.367-0.228 0-0.505 0.105-0.567 0.479l-0.291 1.482-0.38-1.299c-0.069-0.262-0.325-0.394-0.63-0.394-0.311 0-0.574 0.131-0.65 0.394l-0.429 1.364-0.291-1.548c-0.069-0.38-0.353-0.479-0.602-0.479-0.36 0-0.837 0.295-0.803 0.367l0.92 2.637c0.104 0.282 0.429 0.335 0.657 0.335zM70.826 28.694h-1.259c0.035-0.341 0.297-0.59 0.65-0.59 0.367 0 0.588 0.216 0.609 0.59zM68.418 29.028c0 1.050 0.733 1.679 1.903 1.679 0.484 0 0.851-0.079 1.107-0.216 0.249-0.138 0.387-0.328 0.387-0.544 0-0.479-0.623-0.499-0.63-0.485-0.125 0.23-0.408 0.393-0.816 0.393-0.394 0-0.692-0.177-0.789-0.485-0.014-0.026-0.021-0.059-0.028-0.092h2.186c0.208 0 0.263-0.112 0.27-0.302v-0.059c0-0.938-0.726-1.62-1.771-1.62-1.058 0-1.82 0.735-1.82 1.732zM66.779 27.297c-0.526 0-0.851 0.236-1.065 0.59v-0.931c0-0.768-0.436-0.958-0.816-0.958-0.27 0-0.512 0.098-0.512 0.144v3.896c0 0.466 0.249 0.61 0.602 0.61h0.138c0.339 0 0.588-0.151 0.588-0.61v-1.194c0-0.335 0.187-0.525 0.519-0.525 0.27 0 0.429 0.184 0.429 0.499v1.22c0 0.466 0.249 0.61 0.609 0.61h0.138c0.339 0 0.581-0.157 0.581-0.61v-1.41c0-0.702-0.325-1.332-1.211-1.332zM60.697 28.996c0 1.017 0.733 1.712 1.82 1.712 0.526 0 0.893-0.131 1.121-0.315 0.235-0.171 0.332-0.387 0.332-0.544 0-0.531-0.692-0.597-0.713-0.551-0.104 0.256-0.325 0.426-0.671 0.426-0.408 0-0.699-0.302-0.699-0.728 0-0.413 0.291-0.715 0.699-0.715 0.374 0 0.567 0.177 0.671 0.433 0.028 0.046 0.713-0.046 0.713-0.544 0-0.164-0.090-0.381-0.318-0.551-0.228-0.184-0.588-0.321-1.135-0.321-1.065 0-1.82 0.708-1.82 1.699zM56.955 30.393c0.277 0.184 0.747 0.315 1.446 0.315 1.335 0 2.013-0.499 2.013-1.423 0-0.781-0.671-1.122-1.55-1.299-0.463-0.098-0.816-0.125-0.816-0.367 0-0.216 0.194-0.328 0.595-0.328 0.422 0 0.879 0.197 1.176 0.459 0.028 0.020 0.491-0.295 0.491-0.662 0-0.203-0.111-0.387-0.36-0.531-0.277-0.164-0.706-0.276-1.322-0.276-1.224 0-1.903 0.518-1.903 1.391 0 0.879 0.747 1.154 1.494 1.305 0.443 0.085 0.789 0.131 0.789 0.394 0 0.216-0.194 0.328-0.616 0.328-0.47 0-1.031-0.236-1.315-0.485-0.048-0.033-0.456 0.308-0.456 0.623 0 0.21 0.097 0.407 0.332 0.558z"></path>
<path d="M81.998 30.668h0.152c0.394 0 0.581-0.171 0.581-0.531v-0.112c0-0.361-0.18-0.531-0.581-0.531h-0.152c-0.381 0-0.567 0.171-0.567 0.531v0.112c0 0.361 0.187 0.531 0.567 0.531zM82.005 29.199h0.138c0.18 0 0.277-0.131 0.346-0.394l0.36-1.712c0.131-0.479-0.159-0.8-0.692-0.8h-0.173c-0.505 0-0.796 0.321-0.664 0.8l0.353 1.712c0.076 0.262 0.166 0.394 0.332 0.394z"></path>
<path d="M86.572 8.040c0.030-0.005 0.057-0.014 0.080-0.028s0.041-0.033 0.055-0.056c0.014-0.024 0.020-0.054 0.020-0.092 0-0.052-0.015-0.094-0.046-0.127s-0.080-0.049-0.148-0.049h-0.359v0.359h0.301c0.034 0 0.065-0.002 0.096-0.007zM86.541 7.572c0.103 0 0.184 0.024 0.243 0.072s0.088 0.114 0.088 0.198c0 0.063-0.015 0.117-0.045 0.164s-0.078 0.079-0.144 0.097v0.003c0.031 0.006 0.057 0.015 0.077 0.029s0.035 0.030 0.047 0.048 0.020 0.040 0.026 0.063c0.006 0.023 0.010 0.047 0.013 0.072 0.002 0.025 0.003 0.051 0.004 0.076s0.004 0.051 0.008 0.076c0.004 0.025 0.010 0.049 0.017 0.071s0.019 0.043 0.034 0.060h-0.161c-0.010-0.011-0.017-0.025-0.021-0.043s-0.006-0.039-0.007-0.061-0.002-0.047-0.003-0.073c-0.001-0.026-0.004-0.051-0.009-0.076s-0.009-0.049-0.015-0.071c-0.006-0.023-0.016-0.042-0.029-0.059s-0.030-0.030-0.052-0.040c-0.021-0.010-0.050-0.015-0.085-0.015h-0.353v0.44h-0.145v-1.030h0.511z"></path>
<path d="M86.422 9.043v-0.059c0.256-0 0.487-0.098 0.656-0.258s0.271-0.379 0.271-0.621-0.104-0.462-0.271-0.622c-0.168-0.159-0.399-0.257-0.656-0.257s-0.487 0.098-0.655 0.257c-0.168 0.159-0.272 0.379-0.272 0.622s0.104 0.462 0.272 0.621c0.168 0.159 0.399 0.257 0.655 0.258v0.117c-0.58-0-1.050-0.446-1.051-0.996s0.47-0.996 1.051-0.996 1.050 0.446 1.050 0.996c0 0.55-0.47 0.996-1.050 0.996v-0.059z"></path>
</symbol>
<symbol id="icon-polygon" viewBox="0 0 45 32">
<path  d="M17.643 26.714c2.542 2.825 6.972 2.825 9.514 0l14.43-16.033c3.707-4.119 0.784-10.681-4.757-10.681h-28.859c-5.541 0-8.464 6.563-4.757 10.681l14.43 16.033z"></path>
</symbol>
<symbol id="icon-icon-bag" viewBox="0 0 31 32">
<path fill="none" stroke="#2da6b1" style="stroke: var(--color1, #2da6b1)" stroke-linejoin="miter" stroke-linecap="round" stroke-miterlimit="4" stroke-width="2.56" d="M11.775 9.6l-0.258 0.613c-0.416 0.99-0.52 2.083-0.3 3.134 0.337 1.603 1.613 2.842 3.226 3.13l0.142 0.025c0.511 0.091 1.035 0.091 1.547 0l0.142-0.025c1.613-0.288 2.889-1.526 3.226-3.13 0.221-1.051 0.116-2.144-0.3-3.134l-0.258-0.613"></path>
<path fill="none" stroke="#2da6b1" style="stroke: var(--color1, #2da6b1)" stroke-linejoin="miter" stroke-linecap="butt" stroke-miterlimit="4" stroke-width="2.56" d="M25.882 20.023c-0.73 3.209-3.224 5.731-6.424 6.505-2.689 0.651-5.509 0.651-8.198 0-3.199-0.774-5.694-3.296-6.424-6.505-0.652-2.868-0.494-5.86 0.458-8.643l0.141-0.413c1.047-3.062 3.662-5.322 6.844-5.914l0.871-0.162c1.46-0.272 2.957-0.272 4.417 0l0.871 0.162c3.181 0.592 5.797 2.852 6.844 5.914l0.141 0.413c0.952 2.783 1.11 5.775 0.458 8.643z"></path>
</symbol>

<symbol id="icon-bag" viewBox="0 0 31 32">
<path fill="none" stroke="#fff" style="stroke: var(--color1, #fff)" stroke-linejoin="miter" stroke-linecap="round" stroke-miterlimit="4" stroke-width="2.56" d="M11.775 9.6l-0.258 0.613c-0.416 0.99-0.52 2.083-0.3 3.134 0.337 1.603 1.613 2.842 3.226 3.13l0.142 0.025c0.511 0.091 1.035 0.091 1.547 0l0.142-0.025c1.613-0.288 2.889-1.526 3.226-3.13 0.221-1.051 0.116-2.144-0.3-3.134l-0.258-0.613"></path>
<path fill="none" stroke="#fff" style="stroke: var(--color1, #fff)" stroke-linejoin="miter" stroke-linecap="butt" stroke-miterlimit="4" stroke-width="2.56" d="M25.882 20.023c-0.73 3.209-3.224 5.731-6.424 6.505-2.689 0.651-5.509 0.651-8.198 0-3.199-0.774-5.694-3.296-6.424-6.505-0.652-2.868-0.494-5.86 0.458-8.643l0.141-0.413c1.047-3.062 3.662-5.322 6.844-5.914l0.871-0.162c1.46-0.272 2.957-0.272 4.417 0l0.871 0.162c3.181 0.592 5.797 2.852 6.844 5.914l0.141 0.413c0.952 2.783 1.11 5.775 0.458 8.643z"></path>
</symbol>

<svg id="icon-slider" width="504" height="451" viewBox="0 0 504 451" fill="none" xmlns="http://www.w3.org/2000/svg">
<path d="M225.121 274.483C224.359 277.328 226.048 280.253 228.893 281.015C231.738 281.777 234.662 280.089 235.425 277.244C236.187 274.398 234.499 271.474 231.653 270.712C228.808 269.949 225.884 271.638 225.121 274.483ZM295.546 292.622L295.287 291.656L295.287 291.656L295.546 292.622ZM344.083 245.356L343.125 245.069L344.083 245.356ZM345.42 210.32L346.397 210.106L346.397 210.106L345.42 210.32ZM329.587 179.15L328.839 179.814L328.839 179.814L329.587 179.15ZM300.615 159.785L300.942 158.84L300.615 159.785ZM260.733 155.777C259.971 158.622 261.659 161.546 264.504 162.309C267.349 163.071 270.274 161.383 271.036 158.537C271.798 155.692 270.11 152.768 267.265 152.005C264.42 151.243 261.495 152.931 260.733 155.777ZM229.581 276.585C238.233 284.885 248.864 290.806 260.458 293.783L260.956 291.846C249.695 288.955 239.37 283.204 230.965 275.142L229.581 276.585ZM260.458 293.783C272.053 296.76 284.223 296.693 295.805 293.588L295.287 291.656C284.036 294.672 272.216 294.737 260.956 291.846L260.458 293.783ZM295.805 293.588C307.387 290.484 317.994 284.446 326.614 276.052L325.218 274.619C316.843 282.775 306.537 288.641 295.287 291.656L295.805 293.588ZM326.614 276.052C335.233 267.658 341.577 257.188 345.041 245.643L343.125 245.069C339.759 256.289 333.594 266.463 325.218 274.619L326.614 276.052ZM345.041 245.643C348.504 234.099 348.971 221.863 346.397 210.106L344.443 210.534C346.945 221.959 346.491 233.849 343.125 245.069L345.041 245.643ZM346.397 210.106C343.823 198.349 338.293 187.463 330.335 178.487L328.839 179.814C336.569 188.533 341.942 199.11 344.443 210.534L346.397 210.106ZM330.335 178.487C322.377 169.511 312.257 162.747 300.942 158.84L300.289 160.731C311.279 164.525 321.108 171.095 328.839 179.814L330.335 178.487ZM300.942 158.84C289.626 154.933 277.494 154.015 265.704 156.173L266.065 158.141C277.516 156.045 289.299 156.936 300.289 160.731L300.942 158.84Z" fill="white"/>
<circle cx="278.064" cy="225.494" r="224.064" stroke="white" stroke-width="2"/>
<circle cx="53" cy="225.9" r="53" fill="white"/>
<circle cx="157.641" cy="38.2406" r="15.0043" fill="white"/>
<circle cx="157.641" cy="416.348" r="15.0043" fill="white"/>
<path d="M56.2 237.2C58.0933 237.2 59.4267 237.147 60.2 237.04C60.3067 237.413 60.36 237.773 60.36 238.12C60.36 239.373 59.84 240 58.8 240C58.6133 240 57.72 239.987 56.12 239.96C54.5467 239.933 53.1733 239.92 52 239.92C49.7067 239.92 48.1467 239.933 47.32 239.96C47.1867 239.48 47.12 239.08 47.12 238.76C47.12 237.64 47.8933 237.08 49.44 237.08H52C52 236.6 52.0133 235.187 52.04 232.84C52.0667 230.493 52.08 228.347 52.08 226.4C52.08 222.64 52.04 219.28 51.96 216.32C49.1333 216.64 47.52 216.84 47.12 216.92C47.04 216.52 47 216.16 47 215.84C47 214.587 47.52 213.867 48.56 213.68C51.44 213.227 53.4133 213 54.48 213C54.9333 213 55.3333 213.147 55.68 213.44C56.0533 213.733 56.24 214.213 56.24 214.88C56.24 214.933 56.1867 216.547 56.08 219.72C55.9733 222.893 55.92 225.693 55.92 228.12C55.92 232.547 56.0133 235.573 56.2 237.2Z" fill="#F35669"/>
<path d="M219.031 253.127L219.93 255.183L213.267 258.098L212.328 255.951C212.045 255.304 211.937 254.693 212.002 254.116C212.066 253.541 212.292 253.022 212.682 252.559C213.069 252.098 213.607 251.716 214.297 251.415C214.991 251.111 215.643 250.973 216.252 251.001C216.859 251.03 217.4 251.222 217.876 251.578C218.35 251.934 218.735 252.45 219.031 253.127ZM218.862 254.689L218.338 253.492C218.097 252.941 217.791 252.531 217.42 252.262C217.049 251.993 216.628 251.855 216.158 251.849C215.687 251.843 215.181 251.958 214.639 252.195C214.101 252.431 213.676 252.721 213.365 253.067C213.051 253.413 212.867 253.807 212.811 254.247C212.754 254.688 212.839 255.169 213.066 255.69L213.63 256.978L218.862 254.689Z" fill="white"/>
<path d="M216.614 247.321L209.644 249.395L208.943 247.04C208.781 246.495 208.741 246.02 208.823 245.616C208.903 245.212 209.079 244.878 209.351 244.614C209.623 244.35 209.965 244.157 210.375 244.035C210.786 243.913 211.175 243.888 211.543 243.962C211.911 244.035 212.237 244.218 212.522 244.511C212.804 244.805 213.026 245.222 213.187 245.762L213.754 247.668L212.991 247.895L212.432 246.016C212.321 245.644 212.178 245.361 212.001 245.166C211.824 244.97 211.621 244.85 211.391 244.807C211.158 244.763 210.902 244.782 210.623 244.865C210.343 244.948 210.115 245.073 209.937 245.24C209.76 245.406 209.648 245.621 209.603 245.884C209.555 246.147 209.588 246.467 209.7 246.844L210.141 248.328L216.363 246.477L216.614 247.321ZM212.507 244.972L215.128 242.325L215.419 243.305L212.79 245.925L212.507 244.972Z" fill="white"/>
<path d="M214.507 239.87L214.668 240.779L207.041 239.422L206.882 238.527L213.576 234.626L213.737 235.535L208.089 238.745L208.099 238.801L214.507 239.87ZM211.65 240.031L211 236.367L211.769 236.23L212.419 239.895L211.65 240.031Z" fill="white"/>
<path d="M208.03 228.012C207.796 228.103 207.587 228.217 207.405 228.355C207.22 228.491 207.065 228.649 206.94 228.832C206.814 229.011 206.722 229.213 206.663 229.437C206.604 229.66 206.581 229.904 206.595 230.166C206.619 230.596 206.751 230.981 206.992 231.322C207.233 231.662 207.575 231.925 208.019 232.109C208.463 232.294 208.999 232.37 209.628 232.336C210.257 232.302 210.782 232.169 211.203 231.935C211.625 231.701 211.937 231.399 212.14 231.028C212.343 230.656 212.432 230.246 212.408 229.797C212.386 229.381 212.277 229.019 212.083 228.712C211.886 228.403 211.62 228.168 211.284 228.008C210.946 227.846 210.554 227.777 210.11 227.801L210.152 227.528L210.27 229.713L209.489 229.755L209.341 226.989L210.121 226.947C210.719 226.915 211.246 227.014 211.702 227.246C212.158 227.475 212.519 227.807 212.787 228.24C213.052 228.672 213.2 229.176 213.231 229.753C213.265 230.396 213.144 230.969 212.868 231.472C212.591 231.973 212.181 232.374 211.638 232.676C211.094 232.976 210.44 233.146 209.674 233.187C209.099 233.218 208.579 233.169 208.112 233.04C207.642 232.908 207.238 232.71 206.899 232.443C206.56 232.177 206.294 231.855 206.1 231.476C205.907 231.098 205.798 230.676 205.773 230.21C205.752 229.827 205.791 229.467 205.889 229.13C205.985 228.79 206.131 228.485 206.327 228.214C206.521 227.94 206.759 227.708 207.04 227.518C207.319 227.327 207.633 227.189 207.982 227.104L208.03 228.012Z" fill="white"/>
<path d="M206.644 219.79L205.869 219.691L206.555 214.28L207.331 214.379L207.043 216.647L213.482 217.465L213.371 218.338L206.932 217.521L206.644 219.79Z" fill="white"/>
<path d="M212.091 205.978C212.835 206.166 213.444 206.463 213.917 206.868C214.391 207.274 214.716 207.748 214.891 208.29C215.066 208.833 215.078 209.405 214.926 210.006C214.774 210.607 214.492 211.105 214.08 211.499C213.667 211.893 213.156 212.155 212.547 212.287C211.937 212.418 211.261 212.39 210.517 212.202C209.773 212.014 209.165 211.717 208.691 211.312C208.217 210.906 207.893 210.432 207.717 209.89C207.542 209.347 207.53 208.775 207.682 208.174C207.835 207.573 208.117 207.075 208.529 206.681C208.941 206.287 209.452 206.024 210.062 205.893C210.671 205.761 211.348 205.79 212.091 205.978ZM211.882 206.804C211.272 206.65 210.731 206.621 210.259 206.719C209.788 206.815 209.401 207.009 209.097 207.301C208.795 207.591 208.589 207.949 208.481 208.376C208.373 208.803 208.383 209.217 208.511 209.618C208.64 210.017 208.889 210.371 209.257 210.682C209.626 210.99 210.116 211.221 210.726 211.376C211.337 211.53 211.877 211.56 212.348 211.464C212.82 211.366 213.207 211.172 213.51 210.882C213.814 210.59 214.019 210.231 214.127 209.804C214.235 209.377 214.225 208.964 214.096 208.565C213.968 208.164 213.72 207.81 213.351 207.501C212.982 207.191 212.493 206.958 211.882 206.804Z" fill="white"/>
<path d="M215.459 193.726L215.088 194.525C214.836 194.465 214.596 194.454 214.367 194.492C214.139 194.527 213.928 194.601 213.732 194.714C213.535 194.823 213.359 194.965 213.205 195.139C213.052 195.313 212.924 195.509 212.822 195.728C212.637 196.128 212.57 196.536 212.621 196.954C212.673 197.37 212.852 197.765 213.156 198.138C213.461 198.51 213.899 198.828 214.47 199.093C215.042 199.358 215.568 199.488 216.048 199.481C216.53 199.472 216.946 199.354 217.298 199.125C217.65 198.895 217.919 198.58 218.105 198.181C218.206 197.961 218.274 197.737 218.307 197.507C218.341 197.278 218.337 197.053 218.296 196.832C218.253 196.609 218.172 196.399 218.052 196.202C217.931 196.003 217.767 195.826 217.562 195.673L217.932 194.874C218.242 195.091 218.492 195.341 218.685 195.623C218.877 195.906 219.012 196.208 219.089 196.531C219.164 196.853 219.182 197.184 219.142 197.523C219.103 197.86 219.006 198.195 218.852 198.527C218.591 199.09 218.221 199.527 217.743 199.837C217.264 200.147 216.714 200.311 216.09 200.327C215.467 200.343 214.807 200.189 214.112 199.866C213.416 199.543 212.873 199.138 212.483 198.652C212.093 198.165 211.862 197.639 211.79 197.074C211.719 196.508 211.814 195.944 212.075 195.381C212.229 195.048 212.423 194.758 212.655 194.511C212.888 194.262 213.153 194.063 213.45 193.913C213.744 193.763 214.061 193.67 214.401 193.634C214.739 193.598 215.091 193.629 215.459 193.726Z" fill="white"/>
<path d="M221.118 193.553L214.97 189.669L215.44 188.924L218.178 190.654L220.249 187.375L217.511 185.646L217.981 184.901L224.13 188.785L223.66 189.53L220.91 187.792L218.839 191.071L221.589 192.808L221.118 193.553Z" fill="white"/>
<path d="M226.051 186.017L225.466 186.731L221.539 180.053L222.115 179.35L229.431 181.9L228.845 182.614L222.734 180.409L222.698 180.453L226.051 186.017ZM224.072 183.951L226.433 181.075L227.037 181.571L224.676 184.447L224.072 183.951Z" fill="white"/>
<path d="M229.958 171.09L234.968 176.362L234.35 176.949L227.543 175.54L227.492 175.588L231.426 179.728L230.787 180.334L225.777 175.062L226.395 174.475L233.221 175.885L233.273 175.836L229.33 171.687L229.958 171.09Z" fill="white"/>
<path d="M237.862 167.72C237.658 167.573 237.448 167.461 237.233 167.384C237.019 167.304 236.801 167.261 236.58 167.255C236.361 167.249 236.141 167.282 235.922 167.355C235.702 167.427 235.486 167.541 235.274 167.697C234.927 167.951 234.677 168.273 234.524 168.661C234.371 169.049 234.338 169.479 234.426 169.952C234.514 170.424 234.744 170.915 235.116 171.423C235.488 171.93 235.888 172.297 236.314 172.522C236.74 172.747 237.164 172.843 237.585 172.81C238.007 172.776 238.399 172.627 238.762 172.361C239.098 172.115 239.342 171.826 239.493 171.496C239.644 171.162 239.695 170.81 239.645 170.442C239.596 170.07 239.44 169.705 239.177 169.346L239.428 169.232L237.663 170.525L237.202 169.895L239.436 168.257L239.898 168.888C240.252 169.371 240.456 169.867 240.512 170.375C240.569 170.882 240.489 171.366 240.273 171.827C240.056 172.285 239.715 172.684 239.249 173.026C238.73 173.406 238.184 173.618 237.611 173.662C237.041 173.705 236.481 173.581 235.931 173.291C235.383 173 234.882 172.545 234.429 171.926C234.089 171.462 233.845 170.999 233.698 170.538C233.551 170.073 233.496 169.626 233.534 169.197C233.571 168.767 233.696 168.368 233.907 167.999C234.118 167.63 234.411 167.308 234.787 167.032C235.097 166.806 235.419 166.641 235.755 166.539C236.092 166.433 236.427 166.388 236.762 166.404C237.097 166.417 237.421 166.489 237.735 166.62C238.047 166.75 238.334 166.937 238.596 167.183L237.862 167.72Z" fill="white"/>
<path d="M243.954 169.629L240.375 163.298L244.196 161.138L244.58 161.818L241.526 163.545L242.736 165.684L245.592 164.069L245.976 164.749L243.12 166.364L244.337 168.516L247.44 166.761L247.825 167.441L243.954 169.629Z" fill="white"/>
</svg>

<symbol id="icon-taste-it-1" viewBox="0 0 38 32">
<path fill="#fff" style="fill: var(--color1, #fff); stroke: var(--color1, #fff)" stroke="#fff" stroke-linejoin="miter" stroke-linecap="butt" stroke-miterlimit="4" stroke-width="2.2857" d="M10.136 3.928l0.273 0.125 7.012-0.594 4.135 4.5 6.642 1.682 1.436 5.381 5.131 3.614-1.452 5.305 2.811 4.93-4.050 4.36 0.002 0.451 0.016 5.010-6.010 2.712-2.843 5.057-6.984 0.563-5.246 3.734-6.721-1.732-6.721 1.732-5.246-3.734-6.984-0.563-2.844-5.057-6.010-2.712 0.016-5.010 0.002-0.451-4.050-4.36 2.811-4.93-1.452-5.305 5.131-3.614 1.436-5.381 6.642-1.682 4.135-4.5 7.012 0.594 6.122-2.796 5.85 2.672z"></path>
</symbol>
<symbol id="icon-taste-it-2" viewBox="0 0 150 32">
<path fill="#fff" style="fill: var(--color1, #fff); stroke: var(--color2, #f35669)" stroke="#f35669" stroke-linejoin="miter" stroke-linecap="butt" stroke-miterlimit="4" stroke-width="5.12" d="M87.984-75.681l0.611 0.279 15.707-1.33 9.262 10.079 14.877 3.768 3.218 12.053 11.493 8.096-2.973 10.86-0.279 1.023 0.525 0.921 5.772 10.122-9.073 9.766 0.003 1.010 0.037 11.223-13.463 6.076-6.369 11.328-15.644 1.261-11.752 8.364-15.054-3.88-15.054 3.88-11.752-8.364-15.644-1.261-6.369-11.328-13.463-6.076 0.037-11.223 0.003-1.010-9.072-9.766 6.296-11.043-3.253-11.883 11.494-8.096 3.217-12.053 14.877-3.768 9.262-10.079 15.707 1.33 13.714-6.263 13.104 5.984z"></path>
</symbol>

</defs>
</svg>